<?xml version="1.0" encoding="utf-8"?>
<!-- Generator: Adobe Illustrator 26.1.0, SVG Export Plug-In . SVG Version: 6.00 Build 0)  -->
<svg version="1.1" id="Слой_1" xmlns="http://www.w3.org/2000/svg" xmlns:xlink="http://www.w3.org/1999/xlink" x="0px" y="0px"
	 viewBox="100 200 395 395" xml:space="preserve">
<style type="text/css">
	.st0{fill:#1E1D2F;}
	.st1{fill:#369C66;}
	.st2{fill:#7B1F8C;}
	.st3{fill:#7D238E;}
	.st4{fill:#1F1E30;}
	.st5{fill:#8A3999;}
	.st6{fill:#C095C8;}
	.st7{fill:#2B3359;}
	.st8{fill:#76FBB6;}
	.st9{fill:#B6FCD7;}
	.st10{fill:#75FAB6;}
	.st11{fill:#76FAB6;}
	.st12{fill:#77FAB6;}
	.st13{fill:#74F9B4;}
	.st14{fill:#A2C236;}
	.st15{fill:#74F8B4;}
	.st16{fill:#6BAD4E;}
	.st17{fill:#73F3B1;}
	.st18{fill:#6FF1AD;}
	.st19{fill:#F4A6FA;}
	.st20{fill:#F4BCFB;}
	.st21{fill:#F3A5F9;}
	.st22{fill:#872E89;}
	.st23{fill:#E19F46;}
	.st24{fill:#F5EEF6;}
	.st25{fill:#832893;}
	.st26{fill:#8F369E;}
	.st27{fill:#9E5AAA;}
	.st28{fill:#963EA5;}
	.st29{fill:#F1A3F7;}
	.st30{fill:#F0A2F6;}
	.st31{fill:#D1D8F5;}
	.st32{fill:#389D66;}
	.st33{fill:#81278B;}
	.st34{fill:#DED61C;}
	.st35{fill:#DDD51C;}
	.st36{fill:#79B349;}
	.st37{fill:#94BC3D;}
	.st38{fill:#F3B637;}
	.st39{fill:#F2B438;}
	.st40{fill:#E09D44;}
	.st41{fill:#D6914A;}
</style>
<g>
	<path class="st0" d="M252.72,270.91c7.99-3.58,16.27-5.98,25.08-6.21c0.86-0.33,1.69-0.22,2.27,0.49c4.6,5.66,10.87,6.2,17.29,5.06
		c5.79-1.03,11.26,0.22,16.82,1.07c2.46,0.38,4.22,1.39,4.1,4.56c-0.34,8.77,3.33,15.84,10.07,21.28c2.81,2.27,4.46,4.61,3.74,8.49
		c-0.74,4,1.19,7.05,4.49,9.33c4.12,2.84,8.53,5.2,12.73,7.88c21.64,13.83,37.38,32.46,41.93,58.15
		c6.81,38.46-6.16,70.06-36.36,94.59c-5.95,4.83-12.59,8.64-20.42,10.01c-4.29,0.75-8.28,2.46-11.19,6.05
		c-4.86,6-3.41,13.22,3.47,16.7c5.32,2.69,10.89,2.75,16.55,1.32c5.58-1.41,10.34-4.5,15.22-7.38c5.74-3.39,11.59-6.58,18-8.56
		c1.38-0.43,3.14-1.19,4.12,0.39c1.18,1.9-0.57,3.04-1.79,4.09c-8.04,6.87-17.38,11.71-26.61,16.67c-5.86,3.15-11.71,6.41-18,8.62
		c-5.16,1.82-6.97,6.34-9.35,10.49c-0.7,0.45-1.46,0.54-2.26,0.34c-5.93-5.5-13.13-6.58-20.86-6.27c-4.14,0.16-8.31,0.34-12.45-0.48
		c-3.24-0.65-4.88-2.28-4.98-5.74c-0.2-6.96-2.93-12.9-7.84-17.84c-1.82-1.84-3.32-3.86-2.72-6.62c1.13-5.18-1.27-9.02-4.54-12.57
		c-4.93-5.35-11.08-8.96-17.38-12.43c-25.98-14.33-39.23-36.58-40.41-66.04c-0.29-7.3-0.54-14.65,0.31-21.95
		c1.34-11.49,5.69-21.82,12.21-31.32c4.06-5.91,8.42-11.55,13.13-16.96c10.63-12.21,24.27-19.42,39.38-24.42
		c6.58-2.17,8.51-5.27,7.72-10.99c-0.64-4.67-5.07-8.66-10.38-9.33c-0.99-0.13-2-0.06-2.99-0.13c-12.34-0.79-23.66,2.81-34.69,7.87
		c-10.84,4.98-20.43,11.81-29.58,19.36c-1.84,1.52-4.04,4.62-6.26,2.55c-2.43-2.27,0.63-4.79,2.07-6.79
		c7.74-10.76,17.99-18.61,29.58-24.78c5.03-2.68,9.39-6.31,14.1-9.43C249.38,277.8,250.59,274.03,252.72,270.91z"/>
	<path class="st1" d="M324.45,533.81c0.98-6.23,4.82-9.62,10.5-12.1c15.42-6.71,30.33-14.42,43.62-24.9
		c0.76-0.6,1.77-1.03,1.61-2.89c-7.47,2-14.19,5.29-20.6,9.27c-7.97,4.95-15.98,9.53-25.95,8.68c-6.66-0.57-12.66-4.31-14.06-9.3
		c-1.96-6.97,2.07-14.03,9.63-16.77c6.04-2.19,12.53-2.82,18.11-6.63c24.39-16.67,40.26-38.5,43.43-68.64
		c1.84-17.53,1-34.62-7.98-50.18c-8.97-15.54-19.86-29.52-36.55-37.77c-2.97-1.47-5.62-3.55-8.5-5.2
		c-5.68-3.26-8.65-7.71-6.56-14.42c0.55-1.76-0.51-2.33-1.62-3.14c-8.44-6.18-13.47-14.08-12.29-24.97c0.2-1.85-0.92-1.81-2.06-1.97
		c-5.85-0.81-11.48-2.41-17.66-1.25c-7.55,1.42-14.87,0.28-19.7-6.92c5.38-14.35,19.78-15.92,32.36-14.93
		c5.02,0.39,9.87,1.24,14.57,2.89c2,0.7,3.37,0.23,4.94-1.09c4.64-3.9,9.75-6.94,15.91-7.74c2.36-0.31,3.3-1.84,3.83-3.92
		c1.61-6.29,3.03-12.68,9.4-16.24c1.01-0.57,0.6-1.79,0.82-2.72c0.99-4.29,4.68-7.01,8.68-6.49c4.32,0.56,7.96,3.94,8.16,7.57
		c0.22,3.95-2.78,6.82-7.32,8.02c-4.87,1.29-5.58,6.54-8.28,10.24c5.54-0.67,11.07-1.65,16.62-1.9c4.2-0.19,7.51-0.26,10.35-4.55
		c2.44-3.69,9.95-2.21,12,1.95c1.01,2.06,2.09,3.26,4.13,4.06c3.85,1.5,3.97,4.97,3.94,8.35c-0.05,4.66-1.88,8.95-3.31,13.99
		c7.18-1.57,13.97-1.25,20.76-1.21c10.01,0.05,12.87,3.83,10.18,13.53c-1.29,4.66-3.23,9.08-5.76,13.21
		c-1.03,1.69-1.45,2.92,0.24,4.72c20.65,22.03,29.78,49.52,36.4,78.07c3.87,16.65,4.3,33.75,2.84,50.6
		c-3.65,42.13-22.32,77.08-53.47,105.41c-8.98,8.17-18.08,16.34-29.11,21.77c-4.99,2.46-10.05,5.35-16.08,3.64
		c-4.24-1.2-7.76-3.38-8.94-7.81c-0.79-2.99-1.87-2.69-4.1-1.5c-6.5,3.44-13.3,5.89-20.8,6.22c-5.38,0.24-9.29-1.82-12.11-6.26
		C322.57,539.71,322.79,536.78,324.45,533.81z"/>
	<path class="st2" d="M252.72,270.91c0.12,5.36-3.38,8.29-7.19,11.22c-7.81,6.01-17,9.84-24.79,15.82
		c-8.15,6.26-15.87,13.02-21.06,23.15c4.69-1.31,7.13-4.62,10.08-6.98c14.52-11.59,30.43-20.21,48.84-23.7
		c5.44-1.03,10.99-0.75,16.42-0.26c5.46,0.49,10.18,5.62,10.58,10.45c0.6,7.07-1.37,10.12-8.74,12.38
		c-30.9,9.48-51.93,30.55-60.84,60.41c-9.38,31.43-4.75,62,20.33,86.6c6.54,6.41,14.52,10.48,22.38,14.81
		c4.88,2.68,9.06,6.26,12.62,10.45c2.93,3.45,5.45,7.27,3.5,12.24c-0.84,2.12,0.46,3.4,1.83,4.73c5.72,5.59,9.05,12.28,8.9,20.4
		c-0.04,2.35,0.94,3.03,3.09,3.5c6.29,1.38,12.62,0.23,18.9,0.71c5.86,0.44,11.67,1.21,15.14,6.96c2.25,3.28,1.38,6.16-1.11,8.85
		c-8.61,10.37-20.36,10.4-32.28,9.76c-9.23-0.49-18.41-2-27.69-1.61c-0.81,0.68-1.95,0.77-2.66,0.4c-2.34-1.22-1.66,0.97-2.21,1.76
		l0.04,0.03c-3.29-0.73-2.23-3.17-2.07-5.24c0.18-0.48,0.48-0.89,0.89-1.22c4.21-0.99,8.78-1.03,12.13-4.42
		c0.67-0.66,1.48-1.09,2.37-1.37c2.96-0.85,4.65-3.24,6.53-5.4c0.67-0.83,1.44-1.58,1.87-2.58c0.6-1.42,0.96-2.9,1.36-4.38
		c1.81-9.34-1.87-16.74-8.35-23.57c1.58,3.1,2.51,6.06,4.31,8.65c1.16,1.66,1.6,4.1-0.4,5.37c-2.2,1.39-2.65-1.13-3.36-2.44
		c-1.26-2.33-3.53-2.17-5.62-2.5c-1.95-0.28-2.79-1.93-3.94-3.19c-0.95-0.96-2-2.25-3.29-2.1c-8.42,0.98-14.26-4.83-21.02-8.01
		c-7.07-3.32-13.53-7.83-20.01-12.23c-1.1-0.75-2.12-1.61-3.26-2.31c-6.02-3.7-9.61-2.48-11.71,4.23
		c-1.59,5.09-2.71,10.3-3.33,15.62c-0.56,4.78-1.75,5.39-6.22,3.33c-3.5-1.61-6.63-3.85-9.77-6.03
		c-7.96-5.53-16.36-10.27-25.12-14.38c-8.03-3.78-16.5-5.74-25.94-6.28c1.85,5.37,5.81,8.46,9.02,11.73
		c9.68,9.83,20.64,18.09,34.68,20.55c7.51,1.31,15.18,2.08,22.86,1.68c4.68-0.25,7.86,1.26,9.98,5.7
		c2.73,5.72,7.77,9.45,12.78,13.09c1.73,1.25,3.78,2.24,4.23,4.67c0.04,1.85-0.85,3.01-2.59,3.56c-5.08-0.38-7.97-4.46-11.64-7.13
		c-2.48-1.81-4.92-3.28-7.95-3.85c-10.75-2.03-21.2-5.84-32.36-5.39c-1.92,0.08-4-0.4-5.93,1.35c13.01,5.17,24.02,14.64,38.57,15.5
		c4.06,0.84,8.17,0.18,12.23,0.46c2.03,0.14,4.42-0.36,5.33,2.37c-0.21,1.75-1.24,2.58-2.95,2.47c-3.2-0.21-6.44,0.51-9.6-0.43
		c-14.03,1.68-25.72-4.54-37.32-11.07c-2.44-1.37-4.8-2.71-7.7-3.23c-3.06-0.54-6.51-1.61-6.62-5.58c-0.1-3.69,2.89-5.33,5.8-6.69
		c0.88-0.41,1.91-0.47,2.88-0.68c2.7-0.62,5.43-0.3,7.29-0.28c-0.75,0.17-2.25,0-3.41-1.32c-14.88-4.37-26.5-13.57-36.67-24.87
		c-2.44-2.72-4.76-5.57-6.9-8.53c-1.75-2.42-2.24-5.29-0.78-8.02c1.47-2.76,4.25-2.98,6.99-2.73c7.87,0.72,15.59,2.31,23.98,4.9
		c-8.48-13.11-14.3-26.39-17.78-40.71c-3.77-15.55-5.21-31.35-5.41-47.29c-0.54-41.16,18.21-73.2,47.32-100.46
		c11.92-11.16,25.3-20,39.94-27.02c6.94-3.33,14.16-6.06,22.03-5.04C250.9,261.25,252.32,263.11,252.72,270.91z"/>
	<path class="st3" d="M255.63,546.87c0.32,2.06-0.83,4.4,1.18,6.14c-0.92,8.53-3.69,16.17-10.66,21.69
		c-0.98,0.78-1.48,1.72-2.05,2.73c-1.2,2.13-3.06,3.51-5.33,4.25c-3.93,1.27-7.76-0.68-8.77-4.34c-0.97-3.49,1.65-7.01,5.81-7.8
		c6.75-1.28,11.84-8.53,10.89-15.5c-0.04-0.33,0.07-0.86-0.1-0.96c-3.76-2.4-8.47-1.82-12.37-3.92c-1.72-0.93-2.22,1.04-2.8,2.06
		c-3.53,6.19-10.58,8.93-14.4,14.9c-1.33,2.08-4.09,2.28-6.39,1.23c-2.62-1.2-4.06-3.44-3.91-6.4c0.13-2.59,1.57-4.56,4.08-5.04
		c3.61-0.68,6.25-2.75,8.81-5.1c0.35-1.5,2.78-1.94,2.03-3.99c-3.14-2.03-6.63-0.54-9.93-0.99c-2.68-0.37-5.52,0.83-8.07-0.83
		c2.25-2.37,5.2-1.34,7.88-1.6c3.99-0.4,8.06,0.74,12.02-0.52c1.43-0.57,2.11-1.66,2.14-3.18c0.66-2.72,1.51-5.4,1.8-8.21
		c0.2-1.94,0.88-3.6,3.37-3.33c0.48,0.14,0.9,0.4,1.23,0.78c1.69,4.29-0.13,8.15-1.65,11.98c-2.23,5.63-6.07,10.23-9.82,14.96
		c2.83-0.8,4.6-2.85,6.19-5.11c3.35-4.76,6.45-9.67,9.04-14.91c0.63-1.28,1.53-2.95,3.37-2.15c1.69,0.73,1.38,2.46,1.08,3.95
		c-0.2,0.98-0.62,1.9-1.09,2.78c-1.19,2.22-1.57,4.04,1.61,4.91c2.72,0.74,4.66,0.72,4.44-2.92c-0.09-1.46,0.53-2.78,2.1-2.91
		c1.99-0.16,2.39,1.61,2.67,3.03c1.95,9.66,1.21,18.87-5.12,27.35c4.64-4.13,7.42-10.45,8.46-18.37
		C253.6,549.79,252.67,547.32,255.63,546.87z"/>
	<path class="st4" d="M321.61,542.74c0.8-2.89,2.19-5.72,1.11-8.85c0.58,0,1.15,0,1.73,0c0.07,2.92,0.13,5.85,0.2,8.77
		C323.64,542.68,322.62,542.71,321.61,542.74z"/>
	<path class="st5" d="M221.64,546.81c1.96,2.67-0.98,2.85-2.03,3.99c-2.94-2.83-7.05,0.39-10.09-1.93
		C213.5,547.78,218.17,550.78,221.64,546.81z"/>
	<path class="st6" d="M170.44,520.29c1.7,0.43,3.29,1.3,5.13,1.6c-3,0-6,0-9,0C167.49,520.46,169.42,521.48,170.44,520.29z"/>
	<path class="st3" d="M256.78,552.98c-0.94-6.47,3.76-0.28,4.87-2.17C260.36,552.3,257.92,551.19,256.78,552.98z"/>
	<path class="st7" d="M301,349.94c17.98,0,35.96-0.02,53.94,0.01c6.12,0.01,6.55,0.47,6.55,6.51c0,28.8,0,57.6-0.02,86.4
		c0,6.77-0.26,7.01-7.05,7.01c-35.46,0-70.93,0.01-106.39,0c-6,0-6.45-0.43-6.46-6.59c-0.02-29.46,0.05-58.93-0.11-88.39
		c-0.02-3.99,1.17-5.08,5.09-5.04c18.15,0.19,36.3,0.08,54.44,0.08C301,349.93,301,349.93,301,349.94z"/>
	<path class="st8" d="M418.79,462.81c-1.26-5.25-3.9-3.09-5.81-0.77c-5.55,6.71-11.89,12.53-18.87,17.67
		c-2.93,2.16-5.82,4.45-9.49,5.31c-0.83-2.26,1.06-3.29,2.16-4.62c3.75-4.55,4.37-8.19,1.97-12.27c-2.28-3.88-5.92-5.12-11.73-3.98
		c-1.13,0.22-2.27,0.68-3.32-0.23c3.95-5.95,8.03-11.82,11.82-17.87c7.72-12.31,10.58-25.98,11.08-40.31
		c0.5-14.2-0.33-28.21-5.21-41.73c0.89-1.23,2.26-1.32,3.57-1.37c7.12-0.28,10.95-4.51,13.42-10.72c1.21-3.04,1.05-6.57,3.35-9.19
		c1.64,1.65,3.27,3.3,4.92,4.94c1.42,1.4,2.9,3.3,5.01,1.35c1.8-1.67,0.49-3.55-0.69-4.86c-4.57-5.05-8.71-10.52-13.97-14.93
		c-8.86-7.42-8.95-7.84-0.34-15.98c3.13-2.96,6.6-5.55,9.92-8.31c0.44-0.41,0.87-0.39,1.27,0.05c-1.44,11.49,5.18,20.31,10.18,29.51
		c5.34,9.82,13.6,9.52,19.35-0.2c0.34-0.58,0.7-1.12,1.3-1.47c6.68,15.58,11.66,31.65,13.92,48.5c1.35,10.03,2.31,20.09,1.94,30.21
		c-1.29,35.2-13.46,66.25-35.91,93.33c-2.58-2.47-5.38-4.7-8.06-7.07c4.5-5.89,8.95-11.82,12.78-18.18c1.6-2.65,2.24-4.96-1.71-6
		C431.43,465.15,427.63,461.94,418.79,462.81z"/>
	<path class="st9" d="M411.72,342.73c-0.09,4.9-1.65,9.4-3.92,13.65c-3.53,6.59-9.56,8.05-16.41,7.64
		c-6.13-12.08-13.96-22.93-23.44-32.61c-5.39-5.5-11.38-10.18-18.39-13.48c-3.63-1.71-6.95-3.89-10.11-6.34
		c-1.93-1.5-4.5-2.79-3.31-5.9c1.09-2.86,3.35-4.53,6.45-4.72c3.66-0.23,7.34-0.24,10.76,1.35c19.78,9.21,39.18,19.03,54.25,35.45
		C409.05,339.35,410.35,341.07,411.72,342.73z"/>
	<path class="st8" d="M341.61,250.99c1.34-0.61,2.91-2.02,3.97-1.7c6.38,1.92,6.13-2.88,6.82-6.52c0.81-4.29,2.07-8.41,4.39-12.08
		c1.02-1.61,2.14-4.67,4.77-2.75c2.48,1.81,0.5,3.78-1.02,5.39c-3.92,4.17-6.13,9.04-5.93,14.84c0.05,1.57-0.6,4.11,1.45,4.23
		c2.99,0.17,0.85-2.92,1.91-4.29c0.19-0.04,0.54-0.22,0.73-0.12c3.22,1.71,8.23,0.91,9.83,3.99c1.5,2.9-2.63,6-3.19,9.42
		c-0.05,0.32-0.31,0.6-0.37,0.92c-0.28,1.56-1.32,3.63,0.87,4.25c1.91,0.54,2.23-1.65,2.61-2.97c1.49-5.21,4.32-9.7,7.45-14
		c1.97-2.7,4.26-5.14,7.42-6.5c0.93-0.4,2.1-1.63,3-0.04c0.6,1.06-0.31,1.83-0.98,2.57c-2.67,2.96-5.3,5.95-7.97,8.91
		c-2.81,3.12-3.43,7.1-4.39,10.95c-0.36,1.46-0.1,2.85,1.45,3.23c1.94,0.47,1.94-1.11,2.17-2.48c0.47-2.76,0.59-6.52,3.11-7.45
		c2.81-1.03,5.07,2.28,6.56,4.39c5.08,7.18,11.71,5.71,18.79,4.55c6.82-1.12,13.75-2.45,20.72-1.47c4.75,0.66,5.94,2.61,4.38,7.05
		c-1.48,4.22-3.08,8.43-5.62,12.19c-5.22,7.75-10.97,14.98-18.54,20.68c-3.57,2.69-6.86,5.86-9.12,9.81
		c-1.41,2.46-2.63,2.56-4.98,0.9c-4.61-3.25-9.53-6.06-14.31-9.06c-0.13-0.98,0.5-1.35,1.28-1.61c3.41-0.21,6.5,1.26,9.75,1.87
		c8.72,1.65,14.56-4.75,11.67-13.06c-4.36-12.56-13.28-20.02-26.3-22.5c-5.23-1-10.49-1.83-15.75-2.62c-3.51-0.53-6.08-2-7.6-5.55
		c-1.64-3.83-4.48-6.97-7.22-10.11C342.6,253.31,341.21,252.64,341.61,250.99z"/>
	<path class="st9" d="M341.61,250.99c4.23,3.09,7.73,7.17,9.61,11.78c1.95,4.79,5.17,5.54,9.4,6.27c9.36,1.61,19.12,1.86,27.4,7.56
		c6.97,4.8,11.64,11.21,13.99,19.3c2.39,8.23-4.47,15.57-12.84,13.74c-3.54-0.77-7.03-1.8-10.54-2.71
		c-8.66-2.86-15.2-9.33-23.03-13.63c-3.82-2.1-8.58-3.02-10.96-7.34c-1.2-1.81-2.82-2.92-5.05-2.99c-5.36-0.71-6.71-6.35-10.74-8.78
		c-1.62-0.98-3.66-2.48-3.19-5.13c3.37-0.7,6.07,1.01,8.96,2.32c3.02,1.38,6.83,3.15,9.25,0.16c2.14-2.65,0.73-6.36-0.8-9.43
		c-1.69-3.4-4.69-5.46-8.06-7.29C337.1,252.86,339.1,251.48,341.61,250.99z"/>
	<path class="st9" d="M373.69,463.93c8.08-2.61,13.02-1.69,15.9,2.96c3.07,4.95,2.54,9.68-1.49,14.01
		c-1.23,1.32-2.88,2.29-3.49,4.12c-2.85,2.07-6.13,3.27-9.39,4.48c-7.8,2.9-15.17,6.56-22.23,11.01c-6.6,4.16-13.57,7.91-21.88,5.24
		c-3.03-0.97-6.16-2.17-6.47-5.99c-0.31-3.76,1.95-6.19,4.95-7.99c0.98-0.59,2.08-1.15,3.19-1.35
		C350.16,487.34,362.42,476.4,373.69,463.93z"/>
	<path class="st9" d="M420.56,497.8c3.96,0.9,6.73,3.16,8.06,7.07c-12.13,15.02-26.67,27.32-42.91,37.64
		c-2.76,1.75-6,2.86-9.14,3.89c-3.95,1.29-8.54-0.68-9.65-3.98c-1.41-4.21,1.42-5.97,4.57-7.58
		C389.99,525.35,406.62,513.36,420.56,497.8z"/>
	<path class="st9" d="M448.66,332.83c-0.55,5.25-3.63,8.55-8.49,9.92c-4.46,1.26-9.42-1.03-12.13-5.8
		c-3.85-6.78-7.39-13.76-10.75-20.8c-1.72-3.61-0.87-7.48,0.34-11.17c2.8-3.65,5.5-7.48,11.08-5.13
		C437.75,309.4,443.95,320.67,448.66,332.83z"/>
	<path class="st9" d="M418.79,462.81c4.24-2.78,7.19-2.36,11.2,1.99c2.3,2.5,4.9,5.19,1.64,8.83c-2.06,0.47-2.61,2.35-3.55,3.85
		c-4.56,7.28-9.53,14.23-15.68,20.27c-4.06,1.55-7.53,0.62-10.5-2.8c-3.35-3.87-3.74-6.89-1.43-11.22
		c4.01-6.53,11.02-10.27,15.39-16.47C416.88,465.81,418.44,464.71,418.79,462.81z"/>
	<path class="st9" d="M364.68,531.91c-8.21,5.02-16.23,10.53-26.32,10.98c-3.4,0.15-7.23,0.94-8.53-3.83
		c-1.06-3.89,0.91-9.61,4.88-10.98c8.4-2.91,15.67-8.02,23.79-11.39c4.4-1.08,6.29,1.84,7.83,5.06
		C368.1,525.46,368.44,529.05,364.68,531.91z"/>
	<path class="st9" d="M401.65,507.92c-6.29,5.98-13.35,10.89-20.97,15.02c-7.76,0.52-12.7-5.92-10.08-13.09
		c7.73-5.18,14.58-11.48,21.87-17.21C400.71,493.31,405.07,500.56,401.65,507.92z"/>
	<path class="st9" d="M305.25,255.04c5.26-0.51,10.09,0.68,14.92,1.92c2.36,0.6,3.29,1.4,1.98,4.1c-3.36,6.92-3.41,7.1-11.02,5.53
		c-5.11-1.05-10.27-0.95-15.36-0.2c-4.11,0.6-9.25,0.88-10.5-2.81c-1.12-3.31,4.13-4.9,7.09-6.43
		C296.41,255.06,300.91,254.58,305.25,255.04z"/>
	<path class="st10" d="M402.6,248.18c-0.58,4.96-2.3,9.62-4.45,14.05c-0.9,1.86-2.77,1.93-4.49,0.18c-2.66-2.71-5.39-5.37-8.31-7.79
		c-1.55-1.28-1.45-1.95-0.36-3.53c3.27-4.71,7.97-6.58,13.32-7.06C400.92,243.8,402.8,245.09,402.6,248.18z"/>
	<path class="st10" d="M325.64,269.05c4.23,5.05,8.89,9.68,13.93,13.92c-1,1.32-0.46,4.13-3.74,3.16c-2.89-0.86-4.15-2.5-4.05-5.34
		c0.03-0.99,1.37-2.47-0.75-2.53c-1.58-0.05-1.43,1.57-1.5,2.67c-0.06,0.98-0.28,2.48,0.25,2.89c4.15,3.22,2.87,9.57,7.27,12.75
		c-4.62-0.7-7.66-3.84-10.39-7.18C321.49,283.05,321.15,274.07,325.64,269.05z"/>
	<path class="st11" d="M370.61,509.85c0.14,8.01,2.15,10.63,10.08,13.09c-4.89,3.78-10.59,6.11-16,8.97
		c3.27-7.39,1.17-12.59-6.18-15.22C362.54,514.41,366.57,512.13,370.61,509.85z"/>
	<path class="st11" d="M344.62,285.96c11.84,6.16,22.97,13.47,33.99,20.97c-0.33,0.3-0.67,0.61-1,0.91
		c-7.43-3.61-15.9-6.02-21.93-11.24c-3.89-3.37-7.16-3.03-10.99-3.58c-1.73-0.25-2.55-1.42-2.96-2.94
		C341.06,287.6,343.71,287.37,344.62,285.96z"/>
	<path class="st12" d="M401.65,507.92c1.09-6.8,0.02-11.15-9.18-15.28c2.3-3.29,4.93-6.29,7.99-8.9
		c-1.7,8.48,2.99,13.99,11.93,14.02C409.59,501.97,405.58,504.9,401.65,507.92z"/>
	<path class="st13" d="M372.6,222.66c-0.32,3-2.44,4-4.58,3.66c-2.39-0.38-4.93-2.12-4.89-4.62c0.03-1.94,2.12-3.89,4.61-3.6
		C370.41,218.41,372.2,220.04,372.6,222.66z"/>
	<path class="st14" d="M334.6,266.97c-2.24-1.54-4.77-2.15-7.52-2.07c2.38-7.72,4.28-8.39,10.58-3.97
		C337.93,263.6,336.34,265.33,334.6,266.97z"/>
	<path class="st15" d="M396.64,238.61c-0.51,1.96-1.77,3.16-3.8,3.28c-2.04,0.12-3.82-0.89-3.96-2.91
		c-0.14-2.12,1.52-3.12,3.66-3.07C394.44,235.96,396.22,236.2,396.64,238.61z"/>
	<path class="st16" d="M334.6,266.97c0.13-2.46,1.87-4.11,3.06-6.03c1.16,0.5,1.84,1.43,1.96,2.64c0.17,1.72,2.71,3.53,1.07,4.82
		C338.74,269.94,336.33,268.83,334.6,266.97z"/>
	<path class="st17" d="M428.72,299.85c-4.57-0.19-7.99,2.1-11.08,5.12c-0.36-0.01-0.71-0.02-1.07-0.03c1.57-1.86,3.2-3.67,4.71-5.58
		C425.18,294.42,425.16,294.4,428.72,299.85z"/>
	<path class="st18" d="M368.93,245.35c2.29-0.66,3.83-1.8,5.75-1.15C373.09,246.96,373.09,246.96,368.93,245.35z"/>
	<path class="st19" d="M182.83,352.05c6.82-4.18,12.89-8.99,13.23-17.88c0.14-3.51,3.53-3.51,5.18-5.38
		c4.16-4.73,8.97-8.8,14.33-12.17c1.06,1.44,0.21,2.86-0.06,4.28c-1.39,7.14,0.99,12.18,7.38,15.73c1.86,1.03,4.09,1.46,5.49,3.27
		c-6.75,9.27-13.96,18.42-17.06,29.63c-9.93,35.93-3.93,75.83,28.83,100.52c3.75,2.82,7.83,5.02,12.02,7.04
		c5.64,2.71,10.49,6.44,14.58,11.11c2.11,2.4,5.25,4.8,2.78,8.58c-2.47,3.78-6.19,5.39-10.7,4.65c-7.13-1.16-13.65-3.93-19.85-7.61
		c-15.57-9.24-30.95-18.75-44.52-30.86c-2.06-1.06-0.91,0.59-1,1.19c3.24,5.07,8.42,8.39,12.24,13.6
		c-8.93,4.18-9.32,12.94-10.96,20.96c-0.65,3.19-1.3,4.33-4.13,1.71c-1.81-1.68-3.91-3.06-5.87-4.57
		c6.18-5.65,6.44-10.04,0.57-15.98c-4.07-4.13-6.55-9.15-9.06-14.23c-1.74-3.53-4.63-5.68-8.8-5.36c-3.3,0.25-5.51,2.14-6.85,5.08
		c-0.49,1.07-0.55,2.25-0.65,3.42c-0.13,1.47,0.04,3.04-1.28,4.15c-9.46-14.05-13.98-29.89-17.01-46.32
		c-2.76-15-2.59-30.14-1.83-45.22c0.69-13.79,3.47-27.22,9.92-39.74c8.84-17.15,20.79-31.79,34.87-44.82
		c1.06,0.67,1.39,1.8,1.77,2.86c1.84,5.14,5.14,8.68,10.65,9.87c0.95,0.21,1.9,0.54,2.54,1.38c-1.9,3.21-3.8,6.41-6.01,10.14
		c-1.86-3.22-3.69-6.17-6.55-8.19c-2.49-1.76-5.21-2.8-8.34-2.45c-2.58,0.29-4.47,1.07-3.91,4.3c0.55,3.19-1.33,5.31-3.57,7.18
		c-2.04,1.7-4.04,3.43-6.14,5.05c-7.66,5.92-10.02,16.19-5.64,24.95c0.19,0.39,0.78,0.59,1.18,0.87c0.61,0.94,0.02,1.6-0.62,2.1
		c-6.32,4.87-6.63,12.01-6.87,18.98c-0.17,4.88,3.43,8.8,7.88,9.55c4.62,0.78,8.27-1.23,10.36-5.95c1.91-4.32,2.55-9,2.77-13.63
		c0.23-4.9-3.48-8.72-8.48-9.5c-1.77-0.27-3.73,0.11-5.1-1.51c-0.29-4.98,0.58-9.88,1.05-14.8c0.23-2.36,1.42-3.99,3.14-5.38
		c3.98-3.22,7.98-6.41,11.98-9.61c1.94,3.01-0.41,5.37-1.31,7.89c-1.73,4.79-0.8,6.57,4.03,8.1c3.31,1.05,7.07-0.46,10.09,1.9
		c-1.49,4.21-5.21,6.72-7.78,10.1C181.22,352.26,181.89,352.31,182.83,352.05z"/>
	<path class="st19" d="M231.58,528.92c-2.68-0.56-2.78,1.13-2.93,3.11c-0.21,2.8-0.05,5.85-2.97,7.64
		c-5.62-4.62-12.81-8.04-15.96-14.72c-3.23-6.84-8.08-7.46-14.35-7.17c-27.06,1.26-46.94-11.67-62.85-32.22
		c-0.88-1.13-2.51-2.4-1.55-3.89c1.04-1.63,2.94-0.61,4.54-0.46c18.53,1.72,33.94,10.72,48.92,20.78c3.72,2.5,7.65,4.67,11.48,7.01
		c1.91,1.17,2.75,0.54,2.73-1.58c-0.06-5.88,1.87-11.42,3.14-17.05c1.81-8.06,7.03-10.08,13.81-5.51
		c10.88,7.34,21.78,14.51,33.83,20.03c3.02,1.38,5.38,1.93,8.29,1.83c2.61-0.09,4.26,1.39,5.8,3.15c2.09,3.82-2.02,4.96-3.19,7.38
		c-2.58,0.56-3.81-1.63-5.59-2.72c-8.79-5.41-17.17-11.42-25.87-16.96c-3.81-2.43-7.86-4.39-12.54-4.41
		c-5.36-0.02-8.69,3.2-7.9,8.48c1.74,11.62,6.49,21.44,19.77,24.75C229.52,526.72,231.83,526.25,231.58,528.92z"/>
	<path class="st20" d="M228.37,339.9c-10.46-1.88-18.5-10.71-12.8-23.27c16.17-12.9,33.81-22.04,55.2-21.73
		c2.03,0.03,4,0.19,5.77,1.2c2.61,1.49,4.35,3.58,4.12,6.82c-0.22,2.96-2.28,4.22-4.75,5.09c-3.12,1.1-6.22,2.25-9.35,3.29
		C250.62,316.56,239.14,327.75,228.37,339.9z"/>
	<path class="st20" d="M199.57,310.92c-8.97-0.6-13.44-4.81-14.96-14.11c14.9-14.7,31.92-25.86,52.34-31.32
		c1.26-0.34,2.63-0.57,3.92-0.46c2.68,0.22,5.51,0.67,6.51,3.67c1,3.01-0.11,5.71-2.58,7.5c-4.31,3.11-8.6,6.34-13.27,8.82
		C219.15,291.59,208.64,300.34,199.57,310.92z"/>
	<path class="st20" d="M231.58,528.92c-0.36-0.33-0.69-0.89-1.09-0.94c-16.58-2.4-21.02-13.62-23.62-26.21
		c-1.09-5.28,2.99-9.66,8.38-9.96c5.65-0.31,10.41,2.03,14.81,5.04c9.56,6.54,19.63,12.34,28.8,19.46c0.47,0.36,1.25,0.33,1.89,0.48
		c2.02-0.63,3.6,0.76,5.4,1.15c5.66,2.62,11.66,4.78,14.66,10.95c-0.42,1.57-0.85,3.13-1.27,4.7c-1.87,1.65-3.67,0.63-5.43-0.2
		c-2.09-0.98-4.14-2.05-6.36-2.69c-1.4-0.4-2.92-1.16-4.12,0.29c-1.07,1.29-0.58,2.79-0.28,4.25c0.68,3.29,3.86,4.84,5.24,7.64
		c-3.28,3.43-7.43,4.74-11.33,3.59c-1.9-2.56-2.01-5.59-2-8.56c0.02-3.93-1.6-5.76-5.66-5.72c-4.47,0.05-8.87-1.18-13.38-1.04
		c-1.91,0.06-3.6-0.55-4.69-2.27L231.58,528.92z"/>
	<path class="st20" d="M158.65,472.9c0-1.33-0.01-2.66,0.02-4c0.09-5.06,3.06-9.07,7.35-9.95c4.59-0.94,9.73,1.47,11.46,6
		c2.37,6.2,6.06,11.29,10.66,16.02c5.21,5.35,3.15,13.39-3.42,14.85c-8.88-6-19.76-9.56-24.77-20.28
		C159.54,474.65,159.09,473.78,158.65,472.9z"/>
	<path class="st19" d="M223.54,542.85c1.49,3.06-1.17,1.92-2.16,1.94c-5.91,0.15-11.82,0.14-17.73,0.18
		c-9.99-0.31-18.34-5.19-26.78-9.73c-3.64-1.96-7.1-4.21-11.3-4.94c-0.9-0.16-2.67-0.04-2.6-1.69c0.06-1.3,1.38-1.84,2.46-2.17
		c4.71-1.47,9.66-1.12,14.29-0.39c9.6,1.52,19.05,3.94,28.58,5.93c1.61,0.34,2.5,1.53,3.63,2.47
		C215.6,537.52,219.1,540.83,223.54,542.85z"/>
	<path class="st19" d="M231.53,528.86c6.44,1.38,13.02,1.65,19.55,1.83c4.16,0.12,5.6,1.68,5.59,5.58c0,3.4,0.37,6.79,0.58,10.18
		c-0.54,0.14-1.08,0.28-1.62,0.42c-1.68,4.3-1.22,9.05-2.92,13.4c-1.59,4.08-3.42,7.95-6.57,11.04c-0.91,0.89-2.05,2.21-3.41,1.07
		c-1.56-1.32,0-2.34,0.82-3.26c7.35-8.24,6.74-17.91,5.04-27.79c-0.12-0.71-0.38-1.4-1.13-1.34c-0.99,0.08-1.15,0.88-1.21,1.81
		c-0.48,6.62-0.46,6.5-6.99,4.48c-2.87-0.89-3.91-1.85-2.08-4.77c1.35-2.15,2.97-4.42,2.4-7.28c-2.23-0.56-2.35,1.23-2.79,2.24
		c-2.35,5.37-5.59,10.19-8.91,14.96c-1.34,1.93-2.86,3.72-4.85,4.98c-1.44,0.92-3.26,2.96-4.74,1.34c-1.88-2.07,1.03-3,2.11-4.15
		C226.96,546.62,231.79,538.9,231.53,528.86z"/>
	<path class="st20" d="M289.6,530.95c7.67,0.78,15.45-1.26,23.08,0.95c6.87,1.99,7.82,5.44,2.86,10.57
		c-3.71,3.83-8.55,4.95-13.52,5.3c-4.45,0.31-8.94-0.04-13.41-0.09C281.6,543.34,282.06,535.52,289.6,530.95z"/>
	<path class="st20" d="M189.5,340.9c-3.96-0.02-7.93,0.29-11.83-0.94c-4.62-1.46-5.95-4.34-3.97-8.63c1.23-2.67,2.93-5.21,2.99-8.32
		c0.66-1.33,1.41-2.61,1.96-3.99c1.92-4.86,3.46-5.17,7.27-1.36C192.13,323.88,193.52,332.92,189.5,340.9z"/>
	<path class="st21" d="M280.81,528.88c-4.52-4.27-9.55-7.79-15.34-10.13c-1.42-2.35-1.36-4.38,1.23-5.89
		c4.67-0.82,7.18,1.24,7.47,6.51c1.62-3.31-0.43-9.65-4.41-15.31C277.32,504.98,283.59,519.04,280.81,528.88z"/>
	<path class="st21" d="M289.6,530.95c-6.25,7.66-6.39,10.07-0.99,16.72c-4.89,0.4-9.73,0.29-15.09-1.38
		c4.89-4.2,9.22-8.36,11.31-14.3C285.66,529.63,287.93,530.99,289.6,530.95z"/>
	<path class="st22" d="M268.59,542.86c-4.45-1.32-5.9-5.09-6.82-8.94c-1.06-4.44,1.13-6.28,5.44-4.78c2.47,0.86,4.79,2.14,7.21,3.15
		c1.63,0.68,3.15,1.92,5.12,1.28c-0.67,0.8-1.34,1.59-2.01,2.39c-1.64,0.95-3.13,0.11-4.65-0.37c-1.36-0.44-2.83-1.33-3.96,0.26
		c-1.08,1.53-0.01,2.72,0.97,3.84c0.53,0.6,1.12,1.19,0.74,2.12C269.79,541.84,269.03,542.03,268.59,542.86z"/>
	<path class="st23" d="M270.64,541.8c-0.85-0.75-1.69-1.51-2.55-2.24c-1.5-1.27-1.68-2.71-0.64-4.36c1-1.6,2.18-2.24,4.1-1.37
		c1.92,0.87,3.98,1.43,5.99,2.13C275.67,538.42,274.05,541.17,270.64,541.8z"/>
	<path class="st24" d="M189.66,522.83c3.45,0.01,6.9-0.02,10.34,0.06c2.29,0.05,4.17,0.78,4.58,3.8c-5.04-0.99-9.94-1.96-14.84-2.92
		c-0.29-0.18-0.41-0.38-0.33-0.59C189.49,522.94,189.57,522.83,189.66,522.83z"/>
	<path class="st25" d="M266.69,512.86c-1.23,1.79-0.94,3.9-1.23,5.89c-1.98,0.33-3.08-1.47-4.72-1.96c-0.48-1.08-1.94-2.4,0.43-2.93
		c2.36-0.52,2.77-1.95,2.32-3.99C264.96,510.44,264.5,513.06,266.69,512.86z"/>
	<path class="st26" d="M193.46,464.14c-1.23-0.99-2.45-1.99-2.74-4.06c2.3,0.1,3.17,1.29,3.75,2.87
		C194.13,463.34,193.79,463.74,193.46,464.14z"/>
	<path class="st27" d="M189.66,522.83c-0.08,0.32-0.05,0.63,0.09,0.93c-1.36,0.1-2.44-0.45-3.41-1.44
		C187.65,521.49,188.72,521.72,189.66,522.83z"/>
	<path class="st28" d="M182.83,352.05c-0.83,0.88-1.79,2.56-2.94,1.22c-0.79-0.92,0.78-1.81,1.83-2.27
		C182.09,351.35,182.46,351.7,182.83,352.05z"/>
	<path class="st29" d="M240.69,576.03c-0.17,2.69-2.32,3.28-4.11,3.52c-2.19,0.29-3.75-1.21-3.91-3.46
		c-0.19-2.65,1.83-3.87,3.99-4.12C239.43,571.64,239.76,574.28,240.69,576.03z"/>
	<path class="st30" d="M216.75,561.52c-0.34,2.39-1.66,3.43-3.77,3.4c-2.17-0.02-3.34-1.15-3.4-3.4c-0.06-2.31,1.37-3.44,3.31-3.6
		C215.38,557.72,215.96,559.92,216.75,561.52z"/>
	<path class="st31" d="M356.91,357.37c1.15,1.32,0.71,2.52,0.71,3.6c0.02,26.81-0.09,53.63,0.08,80.44c0.02,3.84-1.09,4.61-4.72,4.6
		c-34.15-0.08-68.29-0.02-102.44,0.19c-3.8,0.02-5.03-0.82-5-4.86c0.19-28.29,0.1-56.59,0.1-84.99c2.32-0.16,3.25,1.69,4.51,2.79
		c15.17,13.26,30.38,26.49,45.35,39.97c3.7,3.33,6.27,3.54,10.18,0.25c15.42-12.97,31.1-25.62,46.69-38.38
		C353.85,359.76,355.38,358.58,356.91,357.37z"/>
	<path class="st31" d="M250.34,354.02c1.65-0.18,2.27-0.31,2.89-0.31c33.4-0.01,66.8-0.01,101.71-0.01
		c-5.25,4.32-9.39,7.73-13.53,11.13c-12.6,10.32-25.23,20.61-37.8,30.97c-1.82,1.5-3.06,2.41-5.36,0.36
		C282.62,382.24,266.84,368.5,250.34,354.02z"/>
	<path class="st9" d="M458.37,385.44c0.83,4.63-0.54,8.84-1.06,13.08c-0.73,6.03-6.96,10.89-12.17,10.29
		c-5.95-0.69-9.72-5.44-9.61-12.33c0.18-10.93,0.51-21.83-3.3-32.41c-1.47-4.07,1.13-9.2,4.89-11.42c4.47-2.64,9.18-2.25,12.83,1.14
		c5.39,5.02,6.02,12.08,7.31,18.62C458.11,376.7,459.34,381.16,458.37,385.44z"/>
	<path class="st9" d="M425.53,445.16c-0.56-3.13,1.05-5.95,2.76-8.58c2.42-3.73,3.46-7.85,4.26-12.1c1.08-5.74,5.05-9.44,10.39-9.63
		c5.68-0.2,10.12,3.32,11.45,9.07c1.89,8.15-5.71,26.03-12.91,30.4c-3.62,2.2-7.23,2.08-10.88,0.07
		C427.07,452.45,425.31,449.51,425.53,445.16z"/>
	<path class="st9" d="M411.74,269.98c2.9-0.19,6.54,0.35,10.12-0.83c1.79-0.59,3.62-0.38,3.72,2.43
		c0.29,8.66-8.04,19.03-16.81,20.83c-3.53,0.72-5.74-0.27-6.23-4.19c-0.62-4.89-1.36-9.76-2.19-14.62
		c-0.47-2.73,0.77-3.64,3.23-3.62C406.06,269.99,408.54,269.98,411.74,269.98z"/>
	<path class="st32" d="M362.58,275.96c13.62,0,25.37,8.07,30.17,20.55c1.18,3.07,1.11,4.58-2.88,4.55
		c-3.87-0.03-7.15-1.33-10.26-3.28c-5.91-3.71-11.88-7.29-18.49-9.65c-1.08-0.39-2.11-0.98-3.08-1.62
		c-2.66-1.77-5.63-3.57-4.16-7.46c1.24-3.29,4.42-2.92,7.2-3.09C361.58,275.94,362.08,275.96,362.58,275.96z"/>
	<path class="st20" d="M145.68,416.91c-0.09-8.87,0.45-14.96,2.88-20.69c2.29-5.41,7.46-8.14,12.25-6.76
		c5.78,1.67,9.6,7.62,8.72,13.33c-1.58,10.26-1.69,20.39,2.03,30.36c2.27,6.09-0.3,11.99-5.84,14.58c-4.7,2.2-10.29,0.38-13.59-4.87
		C146.62,434.11,146.24,424.11,145.68,416.91z"/>
	<path class="st20" d="M160.52,352.81c9.75,0.3,13.87,2.18,14.59,8.48c0.8,7.03-0.15,14.21-4.64,20.21
		c-2.87,3.84-7.16,4.26-11.26,2.95c-3.93-1.25-7.02-4.2-7.42-8.54c-0.58-6.34,0.8-12.42,3.43-18.29c1.17-2.6,4.09-2.71,5.38-4.86
		C160.59,352.77,160.52,352.81,160.52,352.81z"/>
	<path class="st33" d="M239.16,523.7c-11.23,0.1-24.01-9.53-26.83-20c-0.48-1.8-1.25-3.61,0.47-5.04c1.61-1.33,3.44-0.81,5.16-0.04
		c1.2,0.54,2.47,1,3.54,1.75c7.47,5.27,15.32,9.84,23.67,13.58c2.47,1.11,6.11,2.58,5.69,5.29c-0.46,2.97-4.36,3.68-7.25,4.39
		C242.21,523.98,240.65,523.7,239.16,523.7z"/>
	<path class="st34" d="M365.62,279.86c2.37-0.15,4.52,0.75,6.71,1.44c2.18,0.68,2.87,2.16,1.96,4.18c-0.79,1.74-2.01,3.13-4.24,2.3
		c-2.46-0.92-4.88-1.94-7.32-2.92C361.01,280.38,361.32,279.84,365.62,279.86z"/>
	<path class="st35" d="M384.58,295.94c-2.75-0.37-4.74-2.26-6.85-3.74c-2.15-1.51-1.67-3.7-0.16-5.63c1.84-2.36,3.29-0.61,4.41,0.64
		c1.63,1.83,2.92,3.95,4.36,5.95C387.01,294.88,385.89,295.48,384.58,295.94z"/>
	<path class="st36" d="M365.62,279.86c-3.66,0.11-3.09,2.66-2.89,5c-2.07-0.93-3.91-2.18-5.9-4.4
		C360.08,280.32,362.58,277.94,365.62,279.86z"/>
	<path class="st37" d="M384.58,295.94c0.59-0.93,1.18-1.85,1.76-2.78c1.43,0.69,2.41,1.98,1.48,3.27
		C387.09,297.45,385.53,297.14,384.58,295.94z"/>
	<path class="st38" d="M223.65,504.83c1.4,0.85,3.09,1.45,4.13,2.62c2.09,2.35,1.26,4.93-0.46,7.12c-1.98,2.53-3.75,0.96-5.32-0.64
		c-1.26-1.28-2.41-2.68-3.61-4.02C219.65,507.71,220.3,504.87,223.65,504.83z"/>
	<path class="st39" d="M235.46,521c-2.1-0.22-4.61,0.22-5.49-2.41c-0.89-2.67,1.27-4.43,2.71-6.05c2.82-3.15,4.4,1.56,6.84,1.46
		C239.6,517.17,239.66,520.32,235.46,521z"/>
	<path class="st40" d="M223.65,504.83c-2.34,1.09-2.54,4.39-5.26,5.07c-2.12-2.35-4.96-6.01-2.97-8
		C218.18,499.13,221.06,503.1,223.65,504.83z"/>
	<path class="st41" d="M235.46,521c2.81-1.49,2.4-4.84,4.06-7c2.19,1.09,6.12,1.29,4.75,4.86
		C242.71,522.98,238.91,522.29,235.46,521z"/>
</g>
</svg>
